<svg xmlns="http://www.w3.org/2000/svg" viewBox="0 0 136.15 96.91"><defs><style>.a,.b{fill:#f59b40;}.a{stroke:#000;stroke-linejoin:round;}</style></defs><title>Asset 1</title><path class="a" d="M23.12,62.15,12.41,67.72v-54C12.41,7.36,18.35.18,26.19.51,51.11.75,74.65,11,91.85,23.71c15.52,11.5,26.37,26.46,30.28,43.17L113,62.15a6,6,0,0,0-5.34,0L93.13,69.72a8.81,8.81,0,0,1-7.82,0L70.74,62.15a6,6,0,0,0-5.33,0L50.84,69.72a8.81,8.81,0,0,1-7.82,0L28.46,62.15A6,6,0,0,0,23.12,62.15Z"/><path class="b" d="M131.5,83.5a5.77,5.77,0,0,1-2.67-.63L113,74.66a6,6,0,0,0-5.34,0L91.88,82.87a6,6,0,0,1-5.33,0L70.74,74.66a6,6,0,0,0-5.33,0L49.6,82.87a6,6,0,0,1-5.34,0l-15.8-8.21a6,6,0,0,0-5.34,0L7.32,82.87A5.74,5.74,0,0,1,.84,82c-1.47-1.56-1-3.71,1.14-4.8l21.14-11a6,6,0,0,1,5.34,0l15.8,8.21a6,6,0,0,0,5.34,0l15.81-8.21a6,6,0,0,1,5.33,0l15.81,8.21a6,6,0,0,0,5.33,0l15.81-8.21a6,6,0,0,1,5.34,0l21.14,11c2.1,1.09,2.61,3.24,1.14,4.8A5.28,5.28,0,0,1,131.5,83.5Z"/><path class="b" d="M131.5,96.9a5.88,5.88,0,0,1-2.67-.62L113,88.07a6,6,0,0,0-5.34,0L91.88,96.28a6,6,0,0,1-5.33,0L70.74,88.07a6,6,0,0,0-5.33,0L49.6,96.28a6,6,0,0,1-5.34,0l-15.8-8.21a6,6,0,0,0-5.34,0L7.32,96.28a5.76,5.76,0,0,1-6.48-.84c-1.47-1.56-1-3.71,1.14-4.8l21.14-11a6,6,0,0,1,5.34,0l15.8,8.21a6,6,0,0,0,5.34,0l15.81-8.21a6,6,0,0,1,5.33,0l15.81,8.21a6,6,0,0,0,5.33,0l15.81-8.21a6,6,0,0,1,5.34,0l21.14,11c2.1,1.09,2.61,3.24,1.14,4.8A5.32,5.32,0,0,1,131.5,96.9Z"/></svg>